<svg xmlns="http://www.w3.org/2000/svg" viewBox="0 5.269999980926514 173.13999938964844 43.38999938964844" data-asc="0.82373046875" width="173.13999938964844" height="43.38999938964844"><defs/><g fill="#000000"><g transform="translate(0, 0)"><path d="M32.37 31.64Q32.37 33.13 31.88 34.42Q31.40 35.72 30.54 36.78Q29.69 37.84 28.55 38.67Q27.42 39.50 26.11 40.06Q24.80 40.63 23.41 40.91Q22.02 41.19 20.68 41.19L0 41.19L0 6.03L18.90 6.03Q20.14 6.03 21.51 6.21Q22.88 6.40 24.18 6.79Q25.49 7.18 26.67 7.81Q27.86 8.45 28.75 9.36Q29.64 10.28 30.16 11.47Q30.69 12.67 30.69 14.21Q30.69 15.67 30.10 16.87Q29.52 18.07 28.53 19.01Q27.54 19.95 26.26 20.67Q24.98 21.39 23.56 21.92Q25.34 22.41 26.94 23.22Q28.54 24.02 29.75 25.20Q30.96 26.37 31.67 27.97Q32.37 29.57 32.37 31.64M20.85 15.06Q20.85 12.08 19.27 10.72Q17.70 9.35 14.79 9.35L9.69 9.35L9.69 20.75L13.96 20.75Q15.28 20.75 16.53 20.42Q17.77 20.09 18.74 19.40Q19.70 18.70 20.28 17.63Q20.85 16.55 20.85 15.06M22.56 31.03Q22.56 29.59 22.19 28.33Q21.83 27.08 21.07 26.16Q20.31 25.24 19.18 24.72Q18.04 24.19 16.50 24.19L9.69 24.19L9.69 37.77L15.65 37.77Q17.14 37.77 18.41 37.28Q19.68 36.79 20.61 35.91Q21.53 35.03 22.05 33.79Q22.56 32.54 22.56 31.03ZM47.85 41.19L38.16 41.19L38.16 6.03L55.44 6.03Q57.89 6.03 60.16 6.60Q62.43 7.18 64.17 8.41Q65.92 9.64 66.96 11.60Q67.99 13.55 67.99 16.33Q67.99 18.51 67.08 20.42Q66.16 22.34 64.64 23.84Q63.11 25.34 61.13 26.33Q59.16 27.32 57.03 27.64Q57.98 29.25 59.02 30.69Q60.06 32.13 61.12 33.39Q62.18 34.64 63.23 35.71Q64.28 36.77 65.23 37.65Q67.48 39.70 69.68 41.19L57.59 41.19Q56.13 39.79 54.81 37.84Q53.69 36.18 52.55 33.73Q51.42 31.27 50.81 28.05L47.85 28.05L47.85 41.19M58.15 16.33Q58.15 12.79 56.43 11.13Q54.71 9.47 51.27 9.47L47.85 9.47L47.85 24.73L51.27 24.73Q53.10 24.73 54.41 24.04Q55.71 23.34 56.54 22.18Q57.37 21.02 57.76 19.51Q58.15 17.99 58.15 16.33ZM107.71 24.37L107.71 24.83Q107.67 26.88 107.29 29.08Q106.91 31.27 106.23 33.47Q105.54 35.67 104.59 37.82Q103.64 39.97 102.45 41.93Q101.27 43.90 99.90 45.62Q98.54 47.34 97.02 48.66L93.38 46.56Q94.24 45.12 94.93 43.42Q95.63 41.72 96.19 39.87Q96.75 38.01 97.16 36.06Q97.56 34.11 97.83 32.18Q98.10 30.25 98.23 28.38Q98.36 26.51 98.36 24.83Q98.36 23.51 98.35 21.84Q98.34 20.17 98.16 18.43Q97.97 16.70 97.56 15.05Q97.14 13.40 96.33 12.11Q95.51 10.82 94.23 10.03Q92.94 9.25 91.04 9.25Q89.36 9.25 88.15 9.83Q86.94 10.40 86.10 11.36Q85.25 12.33 84.75 13.60Q84.25 14.87 83.97 16.27Q83.69 17.68 83.61 19.10Q83.52 20.53 83.52 21.80L83.52 28.61L94.04 28.61L94.04 32.64L83.52 32.64L83.52 41.19L73.83 41.19L73.83 23.32Q73.83 19.48 75.05 16.19Q76.27 12.89 78.50 10.46Q80.74 8.03 83.87 6.65Q87.01 5.27 90.87 5.27Q93.48 5.27 95.76 6.02Q98.05 6.76 99.93 8.07Q101.81 9.38 103.28 11.17Q104.76 12.96 105.75 15.09Q106.74 17.21 107.25 19.58Q107.76 21.95 107.71 24.37ZM131.23 41.19L122.36 41.19L109.23 6.03L119.12 6.03L128.86 34.33L137.67 6.03L143.68 6.03L131.23 41.19ZM173.14 41.19L147.90 41.19L147.90 6.03L173.14 6.03L173.14 10.52L157.59 10.52L157.59 21.39L169.60 21.39L169.60 25.85L157.59 25.85L157.59 36.69L173.14 36.69L173.14 41.19Z"/></g></g></svg>